<svg xmlns="http://www.w3.org/2000/svg" xmlns:xlink="http://www.w3.org/1999/xlink" width="500" zoomAndPan="magnify" viewBox="0 0 375 374.999991" height="500" preserveAspectRatio="xMidYMid meet" version="1.0"><defs><g/><clipPath id="cc3c4611fb"><path d="M 109.699219 122.78125 L 255 122.78125 L 255 206.03125 L 109.699219 206.03125 Z M 109.699219 122.78125 " clip-rule="nonzero"/></clipPath></defs><rect x="-37.5" width="450" fill="#ffffff" y="-37.499999" height="449.999989" fill-opacity="1"/><rect x="-37.5" width="450" fill="#000000" y="-37.499999" height="449.999989" fill-opacity="1"/><g clip-path="url(#cc3c4611fb)"><path fill="#b62e2e" d="M 120.035156 170.671875 L 126.445312 144.539062 L 152.285156 128.921875 L 170.785156 131.601562 L 195.625 122.78125 L 241.628906 145.109375 L 251.265625 144.539062 L 248.460938 150.71875 L 252.707031 163.527344 L 249.574219 167.144531 L 254.851562 179.484375 L 244.3125 183.808594 L 238.839844 178.554688 L 217.730469 172.539062 L 209.308594 148.253906 L 210.582031 179.484375 L 197.480469 188.835938 L 196.890625 201.121094 L 200.574219 201.121094 L 201.238281 206.367188 L 180.667969 206.367188 L 179.066406 180.554688 L 182.730469 175.175781 L 166.777344 177.460938 L 157.964844 154.644531 L 161.429688 172.539062 L 148.882812 188.035156 L 126.988281 198.453125 L 126.445312 201.136719 L 129.132812 201.121094 L 129.796875 206.367188 L 110.558594 206.367188 L 109.941406 188.035156 L 126.445312 167.144531 Z M 145.382812 193.796875 L 162.238281 183.550781 L 162.238281 201.136719 L 166.117188 201.136719 L 166.777344 206.367188 L 147.632812 206.367188 Z M 214.625 177.460938 L 233.671875 179.417969 L 238.148438 201.136719 L 241.976562 201.136719 L 242.636719 206.367188 L 224.292969 206.367188 Z M 232.890625 151.949219 L 235.335938 157.113281 L 239.945312 150.722656 Z M 232.890625 151.949219 " fill-opacity="1" fill-rule="evenodd"/></g><g fill="#ffffff" fill-opacity="1"><g transform="translate(57.087953, 276.701027)"><g><path d="M 3.492188 -14.398438 C 1.816406 -14.398438 0.898438 -13.5 0.898438 -11.808594 L 0.898438 -7.558594 C 0.898438 -7.21875 1.0625 -7.003906 1.386719 -6.894531 L 5.652344 -5.488281 L 5.652344 -3.097656 C 5.652344 -2.609375 5.398438 -2.375 4.933594 -2.375 L 4.066406 -2.375 C 3.617188 -2.375 3.347656 -2.609375 3.347656 -3.097656 L 3.347656 -4.480469 C 3.347656 -4.679688 3.257812 -4.769531 3.058594 -4.769531 L 1.1875 -4.769531 C 1.007812 -4.769531 0.898438 -4.679688 0.898438 -4.480469 L 0.898438 -2.59375 C 0.898438 -0.898438 1.816406 0 3.492188 0 L 5.507812 0 C 7.199219 0 8.101562 -0.898438 8.101562 -2.59375 L 8.101562 -6.75 C 8.101562 -7.09375 7.9375 -7.289062 7.632812 -7.414062 L 3.347656 -8.820312 L 3.347656 -11.304688 C 3.347656 -11.773438 3.617188 -12.023438 4.066406 -12.023438 L 4.933594 -12.023438 C 5.417969 -12.023438 5.652344 -11.773438 5.652344 -11.304688 L 5.652344 -9.898438 C 5.652344 -9.71875 5.761719 -9.613281 5.941406 -9.613281 L 7.8125 -9.613281 C 8.011719 -9.613281 8.101562 -9.71875 8.101562 -9.898438 L 8.101562 -11.808594 C 8.101562 -13.5 7.199219 -14.398438 5.507812 -14.398438 Z M 3.492188 -14.398438 "/></g></g></g><g fill="#ffffff" fill-opacity="1"><g transform="translate(71.235929, 276.701027)"><g><path d="M 0.898438 -2.59375 C 0.898438 -0.898438 1.800781 0 3.492188 0 L 5.507812 0 C 7.199219 0 8.101562 -0.898438 8.101562 -2.59375 L 8.101562 -11.808594 C 8.101562 -13.5 7.199219 -14.398438 5.507812 -14.398438 L 3.492188 -14.398438 C 1.800781 -14.398438 0.898438 -13.5 0.898438 -11.808594 Z M 4.015625 -2.320312 C 3.546875 -2.320312 3.292969 -2.554688 3.292969 -3.042969 L 3.292969 -11.359375 C 3.292969 -11.824219 3.546875 -12.078125 4.015625 -12.078125 L 5.058594 -12.078125 C 5.527344 -12.078125 5.777344 -11.824219 5.777344 -11.359375 L 5.777344 -3.042969 C 5.777344 -2.554688 5.527344 -2.320312 5.058594 -2.320312 Z M 4.015625 -2.320312 "/></g></g></g><g fill="#ffffff" fill-opacity="1"><g transform="translate(85.383906, 276.701027)"><g><path d="M 8.101562 -14.113281 C 8.101562 -14.292969 7.992188 -14.398438 7.8125 -14.398438 L 1.1875 -14.398438 C 0.988281 -14.398438 0.898438 -14.292969 0.898438 -14.113281 L 0.898438 -0.289062 C 0.898438 -0.109375 0.988281 0 1.1875 0 L 3.058594 0 C 3.238281 0 3.347656 -0.109375 3.347656 -0.289062 L 3.347656 -6.03125 L 6.730469 -6.03125 C 6.910156 -6.03125 7.019531 -6.121094 7.019531 -6.316406 L 7.019531 -8.117188 C 7.019531 -8.296875 6.910156 -8.40625 6.730469 -8.40625 L 3.347656 -8.40625 L 3.347656 -12.023438 L 7.8125 -12.023438 C 7.992188 -12.023438 8.101562 -12.132812 8.101562 -12.3125 Z M 8.101562 -14.113281 "/></g></g></g><g fill="#ffffff" fill-opacity="1"><g transform="translate(99.531884, 276.701027)"><g><path d="M 0.828125 -14.398438 C 0.648438 -14.398438 0.539062 -14.292969 0.539062 -14.113281 L 0.539062 -12.3125 C 0.539062 -12.132812 0.648438 -12.023438 0.828125 -12.023438 L 2.914062 -12.023438 L 2.914062 -0.289062 C 2.914062 -0.0898438 3.023438 0 3.203125 0 L 5.074219 0 C 5.273438 0 5.363281 -0.0898438 5.363281 -0.289062 L 5.363281 -12.023438 L 7.453125 -12.023438 C 7.648438 -12.023438 7.738281 -12.132812 7.738281 -12.3125 L 7.738281 -14.113281 C 7.738281 -14.292969 7.648438 -14.398438 7.453125 -14.398438 Z M 0.828125 -14.398438 "/></g></g></g><g fill="#ffffff" fill-opacity="1"><g transform="translate(112.959854, 276.701027)"><g><path d="M 10.746094 -14.398438 C 10.53125 -14.398438 10.386719 -14.273438 10.367188 -14.058594 L 9.628906 -5.632812 L 9.539062 -5.632812 L 7.777344 -14.074219 C 7.722656 -14.292969 7.597656 -14.398438 7.378906 -14.398438 L 6.300781 -14.398438 C 6.085938 -14.398438 5.957031 -14.292969 5.902344 -14.074219 L 4.121094 -5.632812 L 4.03125 -5.632812 L 3.328125 -14.058594 C 3.3125 -14.273438 3.167969 -14.398438 2.953125 -14.398438 L 1.242188 -14.398438 C 1.007812 -14.398438 0.882812 -14.257812 0.898438 -14.023438 L 2.375 -0.34375 C 2.394531 -0.109375 2.519531 0 2.753906 0 L 4.554688 0 C 4.769531 0 4.894531 -0.109375 4.949219 -0.304688 L 6.839844 -8.460938 L 8.710938 -0.324219 C 8.765625 -0.109375 8.890625 0 9.109375 0 L 10.871094 0 C 11.105469 0 11.230469 -0.109375 11.25 -0.34375 L 12.796875 -14.023438 C 12.816406 -14.257812 12.691406 -14.398438 12.457031 -14.398438 Z M 10.746094 -14.398438 "/></g></g></g><g fill="#ffffff" fill-opacity="1"><g transform="translate(131.805811, 276.701027)"><g><path d="M 9.574219 0 C 9.792969 0 9.863281 -0.109375 9.828125 -0.304688 L 6.839844 -14.148438 C 6.804688 -14.328125 6.695312 -14.398438 6.535156 -14.398438 L 4.03125 -14.398438 C 3.871094 -14.398438 3.761719 -14.328125 3.726562 -14.148438 L 0.738281 -0.304688 C 0.683594 -0.109375 0.773438 0 0.972656 0 L 2.898438 0 C 3.058594 0 3.148438 -0.0898438 3.1875 -0.253906 L 3.671875 -2.878906 L 6.875 -2.878906 L 7.378906 -0.253906 C 7.414062 -0.0898438 7.507812 0 7.667969 0 Z M 6.425781 -4.96875 L 4.121094 -4.96875 L 5.273438 -11.25 Z M 6.425781 -4.96875 "/></g></g></g><g fill="#ffffff" fill-opacity="1"><g transform="translate(147.501782, 276.701027)"><g><path d="M 8.296875 -11.808594 C 8.296875 -13.5 7.398438 -14.398438 5.707031 -14.398438 L 1.1875 -14.398438 C 1.007812 -14.398438 0.898438 -14.292969 0.898438 -14.113281 L 0.898438 -0.289062 C 0.898438 -0.109375 1.007812 0 1.1875 0 L 3.058594 0 C 3.238281 0 3.347656 -0.109375 3.347656 -0.289062 L 3.347656 -4.824219 L 4.589844 -4.824219 L 5.796875 -0.253906 C 5.832031 -0.0898438 5.921875 0 6.101562 0 L 7.972656 0 C 8.171875 0 8.28125 -0.109375 8.226562 -0.324219 L 6.984375 -5.039062 C 7.847656 -5.417969 8.296875 -6.210938 8.296875 -7.414062 Z M 3.347656 -7.199219 L 3.347656 -12.023438 L 5.128906 -12.023438 C 5.597656 -12.023438 5.851562 -11.773438 5.851562 -11.304688 L 5.851562 -7.921875 C 5.851562 -7.453125 5.597656 -7.199219 5.128906 -7.199219 Z M 3.347656 -7.199219 "/></g></g></g><g fill="#ffffff" fill-opacity="1"><g transform="translate(161.847758, 276.701027)"><g><path d="M 8.082031 -14.113281 C 8.082031 -14.292969 8.011719 -14.398438 7.792969 -14.398438 L 1.171875 -14.398438 C 1.007812 -14.398438 0.898438 -14.292969 0.898438 -14.113281 L 0.898438 -0.289062 C 0.898438 -0.109375 1.007812 0 1.171875 0 L 7.792969 0 C 8.011719 0 8.082031 -0.109375 8.082031 -0.289062 L 8.082031 -2.089844 C 8.082031 -2.285156 8.011719 -2.375 7.792969 -2.375 L 3.292969 -2.375 L 3.292969 -6.011719 L 6.730469 -6.011719 C 6.910156 -6.011719 7.019531 -6.121094 7.019531 -6.316406 L 7.019531 -8.101562 C 7.019531 -8.296875 6.910156 -8.40625 6.730469 -8.40625 L 3.292969 -8.40625 L 3.292969 -12.007812 L 7.792969 -12.007812 C 8.011719 -12.007812 8.082031 -12.132812 8.082031 -12.3125 Z M 8.082031 -14.113281 "/></g></g></g><g fill="#0f0147" fill-opacity="1"><g transform="translate(175.986382, 276.701027)"><g/></g></g><g fill="#ffffff" fill-opacity="1"><g transform="translate(185.642632, 276.701027)"><g><path d="M 3.511719 -14.398438 C 1.816406 -14.398438 0.898438 -13.5 0.898438 -11.808594 L 0.898438 -8.675781 C 0.898438 -8.011719 1.386719 -7.507812 2.035156 -7.398438 L 2.035156 -7.363281 C 1.386719 -7.253906 0.898438 -6.75 0.898438 -6.085938 L 0.898438 -2.59375 C 0.898438 -0.898438 1.816406 0 3.511719 0 L 7.757812 0 C 7.992188 0 8.117188 -0.125 8.117188 -0.359375 L 8.117188 -6.191406 L 8.875 -6.191406 C 9.109375 -6.191406 9.234375 -6.316406 9.234375 -6.550781 L 9.234375 -8.207031 C 9.234375 -8.441406 9.109375 -8.566406 8.875 -8.566406 L 8.117188 -8.566406 L 8.117188 -9.289062 C 8.117188 -9.523438 7.992188 -9.648438 7.757812 -9.648438 L 6.046875 -9.648438 C 5.8125 -9.648438 5.6875 -9.523438 5.6875 -9.289062 L 5.6875 -8.566406 L 4.015625 -8.566406 C 3.546875 -8.566406 3.292969 -8.820312 3.292969 -9.269531 L 3.292969 -11.304688 C 3.292969 -11.773438 3.527344 -12.023438 4.015625 -12.023438 L 6.769531 -12.023438 C 7.003906 -12.023438 7.128906 -12.148438 7.128906 -12.382812 L 7.128906 -14.039062 C 7.128906 -14.273438 7.003906 -14.398438 6.769531 -14.398438 Z M 5.6875 -6.191406 L 5.6875 -2.375 L 4.015625 -2.375 C 3.546875 -2.375 3.292969 -2.609375 3.292969 -3.097656 L 3.292969 -5.472656 C 3.292969 -5.941406 3.527344 -6.191406 4.015625 -6.191406 Z M 5.6875 -6.191406 "/></g></g></g><g fill="#0f0147" fill-opacity="1"><g transform="translate(200.935603, 276.701027)"><g/></g></g><g fill="#e70909" fill-opacity="1"><g transform="translate(210.591853, 276.701027)"><g><path d="M 8.425781 -14.398438 C 8.207031 -14.398438 8.082031 -14.292969 8.027344 -14.074219 L 6.03125 -5.113281 L 4.03125 -14.074219 C 3.976562 -14.292969 3.851562 -14.398438 3.636719 -14.398438 L 1.261719 -14.398438 C 1.027344 -14.398438 0.898438 -14.273438 0.898438 -14.039062 L 0.898438 -0.359375 C 0.898438 -0.125 1.027344 0 1.261719 0 L 2.914062 0 C 3.148438 0 3.277344 -0.125 3.277344 -0.359375 L 3.277344 -8.460938 L 3.402344 -8.460938 L 5.183594 -0.324219 C 5.238281 -0.109375 5.363281 0 5.578125 0 L 6.460938 0 C 6.679688 0 6.804688 -0.109375 6.859375 -0.324219 L 8.640625 -8.460938 L 8.765625 -8.460938 L 8.765625 -0.359375 C 8.765625 -0.125 8.890625 0 9.125 0 L 10.800781 0 C 11.035156 0 11.160156 -0.125 11.160156 -0.359375 L 11.160156 -14.039062 C 11.160156 -14.273438 11.035156 -14.398438 10.800781 -14.398438 Z M 8.425781 -14.398438 "/></g></g></g><g fill="#e70909" fill-opacity="1"><g transform="translate(227.799818, 276.701027)"><g><path d="M 9.574219 0 C 9.792969 0 9.863281 -0.109375 9.828125 -0.304688 L 6.839844 -14.148438 C 6.804688 -14.328125 6.695312 -14.398438 6.535156 -14.398438 L 4.03125 -14.398438 C 3.871094 -14.398438 3.761719 -14.328125 3.726562 -14.148438 L 0.738281 -0.304688 C 0.683594 -0.109375 0.773438 0 0.972656 0 L 2.898438 0 C 3.058594 0 3.148438 -0.0898438 3.1875 -0.253906 L 3.671875 -2.878906 L 6.875 -2.878906 L 7.378906 -0.253906 C 7.414062 -0.0898438 7.507812 0 7.667969 0 Z M 6.425781 -4.96875 L 4.121094 -4.96875 L 5.273438 -11.25 Z M 6.425781 -4.96875 "/></g></g></g><g fill="#e70909" fill-opacity="1"><g transform="translate(243.495791, 276.701027)"><g><path d="M 8.296875 -11.808594 C 8.296875 -13.5 7.398438 -14.398438 5.707031 -14.398438 L 1.1875 -14.398438 C 1.007812 -14.398438 0.898438 -14.292969 0.898438 -14.113281 L 0.898438 -0.289062 C 0.898438 -0.109375 1.007812 0 1.1875 0 L 3.058594 0 C 3.238281 0 3.347656 -0.109375 3.347656 -0.289062 L 3.347656 -4.824219 L 4.589844 -4.824219 L 5.796875 -0.253906 C 5.832031 -0.0898438 5.921875 0 6.101562 0 L 7.972656 0 C 8.171875 0 8.28125 -0.109375 8.226562 -0.324219 L 6.984375 -5.039062 C 7.847656 -5.417969 8.296875 -6.210938 8.296875 -7.414062 Z M 3.347656 -7.199219 L 3.347656 -12.023438 L 5.128906 -12.023438 C 5.597656 -12.023438 5.851562 -11.773438 5.851562 -11.304688 L 5.851562 -7.921875 C 5.851562 -7.453125 5.597656 -7.199219 5.128906 -7.199219 Z M 3.347656 -7.199219 "/></g></g></g><g fill="#e70909" fill-opacity="1"><g transform="translate(257.841763, 276.701027)"><g><path d="M 8.605469 0 C 8.890625 0 9 -0.179688 8.875 -0.414062 L 5.617188 -7.6875 L 8.675781 -13.96875 C 8.800781 -14.21875 8.695312 -14.398438 8.425781 -14.398438 L 6.535156 -14.398438 C 6.335938 -14.398438 6.210938 -14.308594 6.121094 -14.128906 L 3.347656 -8.460938 L 3.347656 -14.039062 C 3.347656 -14.273438 3.222656 -14.398438 2.988281 -14.398438 L 1.261719 -14.398438 C 1.027344 -14.398438 0.898438 -14.273438 0.898438 -14.039062 L 0.898438 -0.359375 C 0.898438 -0.125 1.027344 0 1.261719 0 L 2.988281 0 C 3.222656 0 3.347656 -0.125 3.347656 -0.359375 L 3.347656 -4.339844 L 4.015625 -5.617188 L 6.28125 -0.269531 C 6.355469 -0.0898438 6.480469 0 6.695312 0 Z M 8.605469 0 "/></g></g></g><g fill="#e70909" fill-opacity="1"><g transform="translate(272.637737, 276.701027)"><g><path d="M 8.082031 -14.113281 C 8.082031 -14.292969 8.011719 -14.398438 7.792969 -14.398438 L 1.171875 -14.398438 C 1.007812 -14.398438 0.898438 -14.292969 0.898438 -14.113281 L 0.898438 -0.289062 C 0.898438 -0.109375 1.007812 0 1.171875 0 L 7.792969 0 C 8.011719 0 8.082031 -0.109375 8.082031 -0.289062 L 8.082031 -2.089844 C 8.082031 -2.285156 8.011719 -2.375 7.792969 -2.375 L 3.292969 -2.375 L 3.292969 -6.011719 L 6.730469 -6.011719 C 6.910156 -6.011719 7.019531 -6.121094 7.019531 -6.316406 L 7.019531 -8.101562 C 7.019531 -8.296875 6.910156 -8.40625 6.730469 -8.40625 L 3.292969 -8.40625 L 3.292969 -12.007812 L 7.792969 -12.007812 C 8.011719 -12.007812 8.082031 -12.132812 8.082031 -12.3125 Z M 8.082031 -14.113281 "/></g></g></g><g fill="#e70909" fill-opacity="1"><g transform="translate(286.76771, 276.701027)"><g><path d="M 0.828125 -14.398438 C 0.648438 -14.398438 0.539062 -14.292969 0.539062 -14.113281 L 0.539062 -12.3125 C 0.539062 -12.132812 0.648438 -12.023438 0.828125 -12.023438 L 2.914062 -12.023438 L 2.914062 -0.289062 C 2.914062 -0.0898438 3.023438 0 3.203125 0 L 5.074219 0 C 5.273438 0 5.363281 -0.0898438 5.363281 -0.289062 L 5.363281 -12.023438 L 7.453125 -12.023438 C 7.648438 -12.023438 7.738281 -12.132812 7.738281 -12.3125 L 7.738281 -14.113281 C 7.738281 -14.292969 7.648438 -14.398438 7.453125 -14.398438 Z M 0.828125 -14.398438 "/></g></g></g><g fill="#e70909" fill-opacity="1"><g transform="translate(300.19568, 276.701027)"><g><path d="M 1.1875 -14.398438 C 0.988281 -14.398438 0.898438 -14.292969 0.898438 -14.113281 L 0.898438 -0.289062 C 0.898438 -0.109375 0.988281 0 1.1875 0 L 3.058594 0 C 3.238281 0 3.347656 -0.109375 3.347656 -0.289062 L 3.347656 -14.113281 C 3.347656 -14.292969 3.238281 -14.398438 3.058594 -14.398438 Z M 1.1875 -14.398438 "/></g></g></g><g fill="#e70909" fill-opacity="1"><g transform="translate(309.591674, 276.701027)"><g><path d="M 6.425781 -14.398438 C 6.226562 -14.398438 6.136719 -14.292969 6.136719 -14.113281 L 6.136719 -6.515625 L 6.03125 -6.515625 L 3.292969 -14.164062 C 3.238281 -14.328125 3.132812 -14.398438 2.96875 -14.398438 L 1.1875 -14.398438 C 1.007812 -14.398438 0.898438 -14.292969 0.898438 -14.113281 L 0.898438 -0.289062 C 0.898438 -0.109375 1.007812 0 1.1875 0 L 3.058594 0 C 3.257812 0 3.347656 -0.109375 3.347656 -0.289062 L 3.347656 -7.921875 L 3.4375 -7.921875 L 6.191406 -0.234375 C 6.246094 -0.0703125 6.355469 0 6.515625 0 L 8.296875 0 C 8.476562 0 8.585938 -0.109375 8.585938 -0.289062 L 8.585938 -14.113281 C 8.585938 -14.292969 8.476562 -14.398438 8.296875 -14.398438 Z M 6.425781 -14.398438 "/></g></g></g><g fill="#e70909" fill-opacity="1"><g transform="translate(324.225645, 276.701027)"><g><path d="M 0.898438 -2.59375 C 0.898438 -0.898438 1.800781 0 3.492188 0 L 5.867188 0 C 7.542969 0 8.460938 -0.898438 8.460938 -2.59375 L 8.460938 -7.597656 C 8.460938 -7.792969 8.351562 -7.882812 8.171875 -7.882812 L 5.148438 -7.882812 C 4.949219 -7.882812 4.859375 -7.792969 4.859375 -7.597656 L 4.859375 -5.796875 C 4.859375 -5.617188 4.949219 -5.507812 5.148438 -5.507812 L 6.085938 -5.507812 L 6.085938 -3.097656 C 6.085938 -2.609375 5.832031 -2.375 5.363281 -2.375 L 4.066406 -2.375 C 3.601562 -2.375 3.347656 -2.609375 3.347656 -3.097656 L 3.347656 -11.304688 C 3.347656 -11.773438 3.582031 -12.023438 4.066406 -12.023438 L 5.363281 -12.023438 C 5.832031 -12.023438 6.085938 -11.773438 6.085938 -11.304688 L 6.085938 -9.9375 C 6.085938 -9.757812 6.175781 -9.648438 6.371094 -9.648438 L 8.171875 -9.648438 C 8.351562 -9.648438 8.460938 -9.757812 8.460938 -9.9375 L 8.460938 -11.808594 C 8.460938 -13.5 7.542969 -14.398438 5.867188 -14.398438 L 3.492188 -14.398438 C 1.800781 -14.398438 0.898438 -13.5 0.898438 -11.808594 Z M 0.898438 -2.59375 "/></g></g></g><g fill="#e70909" fill-opacity="1"><g transform="translate(6.202042, 237.193871)"><g><path d="M 22.785156 -38.953125 C 22.203125 -38.953125 21.863281 -38.660156 21.714844 -38.074219 L 16.3125 -13.828125 L 10.90625 -38.074219 C 10.761719 -38.660156 10.417969 -38.953125 9.835938 -38.953125 L 3.410156 -38.953125 C 2.773438 -38.953125 2.433594 -38.609375 2.433594 -37.976562 L 2.433594 -0.972656 C 2.433594 -0.339844 2.773438 0 3.410156 0 L 7.886719 0 C 8.519531 0 8.863281 -0.339844 8.863281 -0.972656 L 8.863281 -22.882812 L 9.203125 -22.882812 L 14.023438 -0.875 C 14.167969 -0.292969 14.507812 0 15.09375 0 L 17.480469 0 C 18.0625 0 18.40625 -0.292969 18.550781 -0.875 L 23.371094 -22.882812 L 23.710938 -22.882812 L 23.710938 -0.972656 C 23.710938 -0.339844 24.054688 0 24.6875 0 L 29.214844 0 C 29.847656 0 30.1875 -0.339844 30.1875 -0.972656 L 30.1875 -37.976562 C 30.1875 -38.609375 29.847656 -38.953125 29.214844 -38.953125 Z M 22.785156 -38.953125 "/></g></g></g><g fill="#e70909" fill-opacity="1"><g transform="translate(38.525313, 237.193871)"><g><path d="M 21.960938 -27.070312 C 21.960938 -31.648438 19.476562 -34.082031 14.898438 -34.082031 L 3.214844 -34.082031 C 2.726562 -34.082031 2.433594 -33.839844 2.433594 -33.304688 L 2.433594 -0.777344 C 2.433594 -0.292969 2.726562 0 3.214844 0 L 14.898438 0 C 19.476562 0 21.960938 -2.433594 21.960938 -7.011719 L 21.960938 -13.488281 C 21.960938 -15.289062 20.644531 -16.652344 18.890625 -16.945312 L 18.890625 -17.042969 C 20.644531 -17.332031 21.960938 -18.695312 21.960938 -20.5 Z M 15.777344 -22.105469 C 15.777344 -20.886719 15.09375 -20.207031 13.828125 -20.207031 L 8.472656 -20.207031 L 8.472656 -27.949219 L 13.828125 -27.949219 C 15.144531 -27.949219 15.777344 -27.265625 15.777344 -26 Z M 15.777344 -8.082031 C 15.777344 -6.769531 15.09375 -6.136719 13.828125 -6.136719 L 8.472656 -6.136719 L 8.472656 -13.777344 L 13.828125 -13.777344 C 15.144531 -13.777344 15.777344 -13.097656 15.777344 -11.832031 Z M 15.777344 -8.082031 "/></g></g></g><g fill="#e70909" fill-opacity="1"><g transform="translate(62.621702, 237.193871)"><g><path d="M 16.457031 -34.082031 C 15.921875 -34.082031 15.484375 -33.644531 15.484375 -33.109375 L 15.484375 -8.375 C 15.484375 -7.058594 14.800781 -6.425781 13.535156 -6.425781 L 11.003906 -6.425781 C 9.738281 -6.425781 9.054688 -7.058594 9.054688 -8.375 L 9.054688 -33.109375 C 9.054688 -33.644531 8.617188 -34.082031 8.082031 -34.082031 L 3.410156 -34.082031 C 2.871094 -34.082031 2.433594 -33.644531 2.433594 -33.109375 L 2.433594 -7.011719 C 2.433594 -2.433594 4.867188 0 9.445312 0 L 14.898438 0 C 19.476562 0 21.910156 -2.433594 21.910156 -7.011719 L 21.910156 -33.109375 C 21.910156 -33.644531 21.472656 -34.082031 20.9375 -34.082031 Z M 16.457031 -34.082031 "/></g></g></g><g fill="#e70909" fill-opacity="1"><g transform="translate(86.669417, 237.193871)"><g><path d="M 9.445312 -34.082031 C 4.917969 -34.082031 2.433594 -31.648438 2.433594 -27.070312 L 2.433594 -18.648438 C 2.433594 -17.722656 2.871094 -17.140625 3.75 -16.847656 L 15.433594 -13.050781 L 15.433594 -8.132812 C 15.433594 -6.816406 14.753906 -6.183594 13.488281 -6.183594 L 10.859375 -6.183594 C 9.640625 -6.183594 8.910156 -6.816406 8.910156 -8.132812 L 8.910156 -10.175781 C 8.910156 -10.710938 8.667969 -10.957031 8.132812 -10.957031 L 3.214844 -10.957031 C 2.726562 -10.957031 2.433594 -10.710938 2.433594 -10.175781 L 2.433594 -7.011719 C 2.433594 -2.433594 4.917969 0 9.445312 0 L 14.898438 0 C 19.476562 0 21.910156 -2.433594 21.910156 -7.011719 L 21.910156 -16.164062 C 21.910156 -17.089844 21.472656 -17.675781 20.644531 -17.964844 L 8.863281 -21.765625 L 8.863281 -25.902344 C 8.863281 -27.167969 9.59375 -27.851562 10.808594 -27.851562 L 13.488281 -27.851562 C 14.800781 -27.851562 15.433594 -27.167969 15.433594 -25.902344 L 15.433594 -23.859375 C 15.433594 -23.371094 15.726562 -23.078125 16.214844 -23.078125 L 21.132812 -23.078125 C 21.667969 -23.078125 21.910156 -23.371094 21.910156 -23.859375 L 21.910156 -27.070312 C 21.910156 -31.648438 19.476562 -34.082031 14.898438 -34.082031 Z M 9.445312 -34.082031 "/></g></g></g><g fill="#e70909" fill-opacity="1"><g transform="translate(110.717137, 237.193871)"><g><path d="M 3.214844 0 C 2.679688 0 2.433594 -0.292969 2.433594 -0.777344 L 2.433594 -33.304688 C 2.433594 -33.789062 2.679688 -34.082031 3.214844 -34.082031 L 8.277344 -34.082031 C 8.765625 -34.082031 9.054688 -33.789062 9.054688 -33.304688 L 9.054688 -0.777344 C 9.054688 -0.292969 8.765625 0 8.277344 0 Z M 3.214844 0 "/></g></g></g><g fill="#e70909" fill-opacity="1"><g transform="translate(121.913395, 237.193871)"><g><path d="M 9.445312 -34.082031 C 4.917969 -34.082031 2.433594 -31.648438 2.433594 -27.070312 L 2.433594 -18.648438 C 2.433594 -17.722656 2.871094 -17.140625 3.75 -16.847656 L 15.433594 -13.050781 L 15.433594 -8.132812 C 15.433594 -6.816406 14.753906 -6.183594 13.488281 -6.183594 L 10.859375 -6.183594 C 9.640625 -6.183594 8.910156 -6.816406 8.910156 -8.132812 L 8.910156 -10.175781 C 8.910156 -10.710938 8.667969 -10.957031 8.132812 -10.957031 L 3.214844 -10.957031 C 2.726562 -10.957031 2.433594 -10.710938 2.433594 -10.175781 L 2.433594 -7.011719 C 2.433594 -2.433594 4.917969 0 9.445312 0 L 14.898438 0 C 19.476562 0 21.910156 -2.433594 21.910156 -7.011719 L 21.910156 -16.164062 C 21.910156 -17.089844 21.472656 -17.675781 20.644531 -17.964844 L 8.863281 -21.765625 L 8.863281 -25.902344 C 8.863281 -27.167969 9.59375 -27.851562 10.808594 -27.851562 L 13.488281 -27.851562 C 14.800781 -27.851562 15.433594 -27.167969 15.433594 -25.902344 L 15.433594 -23.859375 C 15.433594 -23.371094 15.726562 -23.078125 16.214844 -23.078125 L 21.132812 -23.078125 C 21.667969 -23.078125 21.910156 -23.371094 21.910156 -23.859375 L 21.910156 -27.070312 C 21.910156 -31.648438 19.476562 -34.082031 14.898438 -34.082031 Z M 9.445312 -34.082031 "/></g></g></g><g fill="#e70909" fill-opacity="1"><g transform="translate(145.961115, 237.193871)"><g><path d="M 21.863281 -33.304688 C 21.863281 -33.789062 21.667969 -34.082031 21.082031 -34.082031 L 3.164062 -34.082031 C 2.726562 -34.082031 2.433594 -33.789062 2.433594 -33.304688 L 2.433594 -0.777344 C 2.433594 -0.292969 2.726562 0 3.164062 0 L 21.082031 0 C 21.667969 0 21.863281 -0.292969 21.863281 -0.777344 L 21.863281 -5.648438 C 21.863281 -6.183594 21.667969 -6.425781 21.082031 -6.425781 L 9.054688 -6.425781 L 9.054688 -13.632812 L 18.210938 -13.632812 C 18.695312 -13.632812 18.988281 -13.925781 18.988281 -14.460938 L 18.988281 -19.28125 C 18.988281 -19.816406 18.695312 -20.109375 18.210938 -20.109375 L 9.054688 -20.109375 L 9.054688 -27.605469 L 21.082031 -27.605469 C 21.667969 -27.605469 21.863281 -27.949219 21.863281 -28.433594 Z M 21.863281 -33.304688 "/></g></g></g><g fill="#e70909" fill-opacity="1"><g transform="translate(169.960152, 237.193871)"><g><path d="M 17.871094 -34.082031 C 17.332031 -34.082031 17.089844 -33.789062 17.089844 -33.304688 L 17.089844 -14.851562 L 7.9375 -33.449219 C 7.742188 -33.886719 7.5 -34.082031 7.058594 -34.082031 L 3.214844 -34.082031 C 2.726562 -34.082031 2.433594 -33.789062 2.433594 -33.304688 L 2.433594 -0.777344 C 2.433594 -0.292969 2.726562 0 3.214844 0 L 7.789062 0 C 8.324219 0 8.570312 -0.292969 8.570312 -0.777344 L 8.570312 -19.234375 L 17.722656 -0.632812 C 17.917969 -0.195312 18.160156 0 18.597656 0 L 22.445312 0 C 22.933594 0 23.226562 -0.292969 23.226562 -0.777344 L 23.226562 -33.304688 C 23.226562 -33.789062 22.933594 -34.082031 22.445312 -34.082031 Z M 17.871094 -34.082031 "/></g></g></g><g fill="#e70909" fill-opacity="1"><g transform="translate(195.322226, 237.193871)"><g><path d="M 3.214844 0 C 2.679688 0 2.433594 -0.292969 2.433594 -0.777344 L 2.433594 -33.304688 C 2.433594 -33.789062 2.679688 -34.082031 3.214844 -34.082031 L 8.277344 -34.082031 C 8.765625 -34.082031 9.054688 -33.789062 9.054688 -33.304688 L 9.054688 -0.777344 C 9.054688 -0.292969 8.765625 0 8.277344 0 Z M 3.214844 0 "/></g></g></g><g fill="#e70909" fill-opacity="1"><g transform="translate(206.518473, 237.193871)"><g/></g></g><g fill="#ffffff" fill-opacity="1"><g transform="translate(218.405156, 237.193871)"><g><path d="M 22.785156 -38.953125 C 22.203125 -38.953125 21.863281 -38.660156 21.714844 -38.074219 L 16.3125 -13.828125 L 10.90625 -38.074219 C 10.761719 -38.660156 10.417969 -38.953125 9.835938 -38.953125 L 3.410156 -38.953125 C 2.773438 -38.953125 2.433594 -38.609375 2.433594 -37.976562 L 2.433594 -0.972656 C 2.433594 -0.339844 2.773438 0 3.410156 0 L 7.886719 0 C 8.519531 0 8.863281 -0.339844 8.863281 -0.972656 L 8.863281 -22.882812 L 9.203125 -22.882812 L 14.023438 -0.875 C 14.167969 -0.292969 14.507812 0 15.09375 0 L 17.480469 0 C 18.0625 0 18.40625 -0.292969 18.550781 -0.875 L 23.371094 -22.882812 L 23.710938 -22.882812 L 23.710938 -0.972656 C 23.710938 -0.339844 24.054688 0 24.6875 0 L 29.214844 0 C 29.847656 0 30.1875 -0.339844 30.1875 -0.972656 L 30.1875 -37.976562 C 30.1875 -38.609375 29.847656 -38.953125 29.214844 -38.953125 Z M 22.785156 -38.953125 "/></g></g></g><g fill="#ffffff" fill-opacity="1"><g transform="translate(250.728428, 237.193871)"><g><path d="M 21.960938 -27.070312 C 21.960938 -31.648438 19.476562 -34.082031 14.898438 -34.082031 L 3.214844 -34.082031 C 2.726562 -34.082031 2.433594 -33.839844 2.433594 -33.304688 L 2.433594 -0.777344 C 2.433594 -0.292969 2.726562 0 3.214844 0 L 14.898438 0 C 19.476562 0 21.960938 -2.433594 21.960938 -7.011719 L 21.960938 -13.488281 C 21.960938 -15.289062 20.644531 -16.652344 18.890625 -16.945312 L 18.890625 -17.042969 C 20.644531 -17.332031 21.960938 -18.695312 21.960938 -20.5 Z M 15.777344 -22.105469 C 15.777344 -20.886719 15.09375 -20.207031 13.828125 -20.207031 L 8.472656 -20.207031 L 8.472656 -27.949219 L 13.828125 -27.949219 C 15.144531 -27.949219 15.777344 -27.265625 15.777344 -26 Z M 15.777344 -8.082031 C 15.777344 -6.769531 15.09375 -6.136719 13.828125 -6.136719 L 8.472656 -6.136719 L 8.472656 -13.777344 L 13.828125 -13.777344 C 15.144531 -13.777344 15.777344 -13.097656 15.777344 -11.832031 Z M 15.777344 -8.082031 "/></g></g></g><g fill="#ffffff" fill-opacity="1"><g transform="translate(274.824817, 237.193871)"><g><path d="M 15.289062 -20.15625 L 9.054688 -20.15625 L 9.054688 -33.304688 C 9.054688 -33.789062 8.765625 -34.082031 8.277344 -34.082031 L 3.261719 -34.082031 C 2.679688 -34.082031 2.433594 -33.789062 2.433594 -33.304688 L 2.433594 -0.777344 C 2.433594 -0.292969 2.679688 0 3.261719 0 L 8.277344 0 C 8.765625 0 9.054688 -0.292969 9.054688 -0.777344 L 9.054688 -13.730469 L 15.289062 -13.730469 L 15.289062 -0.777344 C 15.289062 -0.292969 15.582031 0 16.066406 0 L 21.082031 0 C 21.667969 0 21.910156 -0.292969 21.910156 -0.777344 L 21.910156 -33.304688 C 21.910156 -33.789062 21.667969 -34.082031 21.082031 -34.082031 L 16.066406 -34.082031 C 15.582031 -34.082031 15.289062 -33.789062 15.289062 -33.304688 Z M 15.289062 -20.15625 "/></g></g></g><g fill="#ffffff" fill-opacity="1"><g transform="translate(298.872532, 237.193871)"><g><path d="M 21.863281 -33.304688 C 21.863281 -33.789062 21.667969 -34.082031 21.082031 -34.082031 L 3.164062 -34.082031 C 2.726562 -34.082031 2.433594 -33.789062 2.433594 -33.304688 L 2.433594 -0.777344 C 2.433594 -0.292969 2.726562 0 3.164062 0 L 21.082031 0 C 21.667969 0 21.863281 -0.292969 21.863281 -0.777344 L 21.863281 -5.648438 C 21.863281 -6.183594 21.667969 -6.425781 21.082031 -6.425781 L 9.054688 -6.425781 L 9.054688 -13.632812 L 18.210938 -13.632812 C 18.695312 -13.632812 18.988281 -13.925781 18.988281 -14.460938 L 18.988281 -19.28125 C 18.988281 -19.816406 18.695312 -20.109375 18.210938 -20.109375 L 9.054688 -20.109375 L 9.054688 -27.605469 L 21.082031 -27.605469 C 21.667969 -27.605469 21.863281 -27.949219 21.863281 -28.433594 Z M 21.863281 -33.304688 "/></g></g></g><g fill="#ffffff" fill-opacity="1"><g transform="translate(322.871569, 237.193871)"><g><path d="M 9.054688 -6.425781 L 18.695312 -6.425781 C 19.234375 -6.425781 19.476562 -6.136719 19.476562 -5.648438 L 19.476562 -0.777344 C 19.476562 -0.242188 19.234375 0 18.695312 0 L 3.214844 0 C 2.726562 0 2.433594 -0.242188 2.433594 -0.777344 L 2.433594 -33.304688 C 2.433594 -33.789062 2.726562 -34.082031 3.214844 -34.082031 L 8.277344 -34.082031 C 8.8125 -34.082031 9.054688 -33.789062 9.054688 -33.304688 Z M 9.054688 -6.425781 "/></g></g></g><g fill="#ffffff" fill-opacity="1"><g transform="translate(344.485291, 237.193871)"><g><path d="M 21.863281 -33.304688 C 21.863281 -33.789062 21.667969 -34.082031 21.082031 -34.082031 L 3.164062 -34.082031 C 2.726562 -34.082031 2.433594 -33.789062 2.433594 -33.304688 L 2.433594 -0.777344 C 2.433594 -0.292969 2.726562 0 3.164062 0 L 21.082031 0 C 21.667969 0 21.863281 -0.292969 21.863281 -0.777344 L 21.863281 -5.648438 C 21.863281 -6.183594 21.667969 -6.425781 21.082031 -6.425781 L 9.054688 -6.425781 L 9.054688 -13.632812 L 18.210938 -13.632812 C 18.695312 -13.632812 18.988281 -13.925781 18.988281 -14.460938 L 18.988281 -19.28125 C 18.988281 -19.816406 18.695312 -20.109375 18.210938 -20.109375 L 9.054688 -20.109375 L 9.054688 -27.605469 L 21.082031 -27.605469 C 21.667969 -27.605469 21.863281 -27.949219 21.863281 -28.433594 Z M 21.863281 -33.304688 "/></g></g></g><path stroke-linecap="butt" transform="matrix(0.75, 0, 0, 0.75, 118.840295, 246.845989)" fill="none" stroke-linejoin="miter" d="M -0.000601795 2.002224 L 181.692118 2.002224 " stroke="#000000" stroke-width="4" stroke-opacity="1" stroke-miterlimit="4"/></svg>