<svg xmlns="http://www.w3.org/2000/svg" xmlns:xlink="http://www.w3.org/1999/xlink" width="500" zoomAndPan="magnify" viewBox="0 0 375 374.999991" height="500" preserveAspectRatio="xMidYMid meet" version="1.0"><defs><g/><clipPath id="347290d744"><path d="M 116.292969 119.78125 L 261.699219 119.78125 L 261.699219 203.03125 L 116.292969 203.03125 Z M 116.292969 119.78125 " clip-rule="nonzero"/></clipPath></defs><g clip-path="url(#347290d744)"><path fill="#e70909" d="M 126.628906 167.671875 L 133.039062 141.539062 L 158.878906 125.921875 L 177.378906 128.601562 L 202.222656 119.78125 L 248.226562 142.109375 L 257.863281 141.539062 L 255.054688 147.71875 L 259.304688 160.527344 L 256.167969 164.144531 L 261.445312 176.484375 L 250.90625 180.808594 L 245.433594 175.554688 L 224.328125 169.539062 L 215.90625 145.253906 L 217.175781 176.484375 L 204.078125 185.835938 L 203.488281 198.121094 L 207.171875 198.121094 L 207.832031 203.367188 L 187.265625 203.367188 L 185.660156 177.554688 L 189.324219 172.175781 L 173.375 174.460938 L 164.558594 151.644531 L 168.027344 169.539062 L 155.476562 185.035156 L 133.585938 195.453125 L 133.039062 198.136719 L 135.730469 198.121094 L 136.390625 203.367188 L 117.15625 203.367188 L 116.539062 185.035156 L 133.039062 164.144531 Z M 151.976562 190.796875 L 168.832031 180.550781 L 168.832031 198.136719 L 172.710938 198.136719 L 173.375 203.367188 L 154.226562 203.367188 Z M 221.222656 174.460938 L 240.265625 176.417969 L 244.742188 198.136719 L 248.574219 198.136719 L 249.234375 203.367188 L 230.890625 203.367188 Z M 239.488281 148.949219 L 241.929688 154.113281 L 246.539062 147.722656 Z M 239.488281 148.949219 " fill-opacity="1" fill-rule="evenodd"/></g><g fill="#ffffff" fill-opacity="1"><g transform="translate(36.247165, 271.633605)"><g><path d="M 4.074219 -16.792969 C 2.121094 -16.792969 1.050781 -15.746094 1.050781 -13.769531 L 1.050781 -8.816406 C 1.050781 -8.417969 1.238281 -8.167969 1.617188 -8.039062 L 6.589844 -6.402344 L 6.589844 -3.609375 C 6.589844 -3.042969 6.296875 -2.769531 5.75 -2.769531 L 4.746094 -2.769531 C 4.21875 -2.769531 3.90625 -3.042969 3.90625 -3.609375 L 3.90625 -5.226562 C 3.90625 -5.457031 3.800781 -5.5625 3.570312 -5.5625 L 1.386719 -5.5625 C 1.175781 -5.5625 1.050781 -5.457031 1.050781 -5.226562 L 1.050781 -3.023438 C 1.050781 -1.050781 2.121094 0 4.074219 0 L 6.421875 0 C 8.398438 0 9.445312 -1.050781 9.445312 -3.023438 L 9.445312 -7.871094 C 9.445312 -8.269531 9.257812 -8.503906 8.902344 -8.648438 L 3.90625 -10.285156 L 3.90625 -13.183594 C 3.90625 -13.730469 4.21875 -14.023438 4.746094 -14.023438 L 5.75 -14.023438 C 6.320312 -14.023438 6.589844 -13.730469 6.589844 -13.183594 L 6.589844 -11.546875 C 6.589844 -11.335938 6.71875 -11.210938 6.925781 -11.210938 L 9.109375 -11.210938 C 9.339844 -11.210938 9.445312 -11.335938 9.445312 -11.546875 L 9.445312 -13.769531 C 9.445312 -15.746094 8.398438 -16.792969 6.421875 -16.792969 Z M 4.074219 -16.792969 "/></g></g></g><g fill="#ffffff" fill-opacity="1"><g transform="translate(52.747284, 271.633605)"><g><path d="M 1.050781 -3.023438 C 1.050781 -1.050781 2.097656 0 4.074219 0 L 6.421875 0 C 8.398438 0 9.445312 -1.050781 9.445312 -3.023438 L 9.445312 -13.769531 C 9.445312 -15.746094 8.398438 -16.792969 6.421875 -16.792969 L 4.074219 -16.792969 C 2.097656 -16.792969 1.050781 -15.746094 1.050781 -13.769531 Z M 4.679688 -2.707031 C 4.136719 -2.707031 3.839844 -2.980469 3.839844 -3.546875 L 3.839844 -13.246094 C 3.839844 -13.792969 4.136719 -14.085938 4.679688 -14.085938 L 5.898438 -14.085938 C 6.445312 -14.085938 6.738281 -13.792969 6.738281 -13.246094 L 6.738281 -3.546875 C 6.738281 -2.980469 6.445312 -2.707031 5.898438 -2.707031 Z M 4.679688 -2.707031 "/></g></g></g><g fill="#ffffff" fill-opacity="1"><g transform="translate(69.247403, 271.633605)"><g><path d="M 9.445312 -16.457031 C 9.445312 -16.667969 9.320312 -16.792969 9.109375 -16.792969 L 1.386719 -16.792969 C 1.15625 -16.792969 1.050781 -16.667969 1.050781 -16.457031 L 1.050781 -0.335938 C 1.050781 -0.125 1.15625 0 1.386719 0 L 3.570312 0 C 3.777344 0 3.90625 -0.125 3.90625 -0.335938 L 3.90625 -7.03125 L 7.851562 -7.03125 C 8.0625 -7.03125 8.1875 -7.136719 8.1875 -7.367188 L 8.1875 -9.46875 C 8.1875 -9.675781 8.0625 -9.804688 7.851562 -9.804688 L 3.90625 -9.804688 L 3.90625 -14.023438 L 9.109375 -14.023438 C 9.320312 -14.023438 9.445312 -14.148438 9.445312 -14.359375 Z M 9.445312 -16.457031 "/></g></g></g><g fill="#ffffff" fill-opacity="1"><g transform="translate(85.747522, 271.633605)"><g><path d="M 0.964844 -16.792969 C 0.753906 -16.792969 0.628906 -16.667969 0.628906 -16.457031 L 0.628906 -14.359375 C 0.628906 -14.148438 0.753906 -14.023438 0.964844 -14.023438 L 3.402344 -14.023438 L 3.402344 -0.335938 C 3.402344 -0.105469 3.527344 0 3.738281 0 L 5.917969 0 C 6.152344 0 6.253906 -0.105469 6.253906 -0.335938 L 6.253906 -14.023438 L 8.691406 -14.023438 C 8.921875 -14.023438 9.027344 -14.148438 9.027344 -14.359375 L 9.027344 -16.457031 C 9.027344 -16.667969 8.921875 -16.792969 8.691406 -16.792969 Z M 0.964844 -16.792969 "/></g></g></g><g fill="#ffffff" fill-opacity="1"><g transform="translate(101.408114, 271.633605)"><g><path d="M 12.53125 -16.792969 C 12.28125 -16.792969 12.113281 -16.648438 12.089844 -16.394531 L 11.230469 -6.570312 L 11.125 -6.570312 L 9.070312 -16.417969 C 9.003906 -16.667969 8.859375 -16.792969 8.605469 -16.792969 L 7.347656 -16.792969 C 7.09375 -16.792969 6.949219 -16.667969 6.886719 -16.417969 L 4.808594 -6.570312 L 4.703125 -6.570312 L 3.882812 -16.394531 C 3.863281 -16.648438 3.695312 -16.792969 3.441406 -16.792969 L 1.449219 -16.792969 C 1.175781 -16.792969 1.027344 -16.625 1.050781 -16.351562 L 2.769531 -0.398438 C 2.792969 -0.125 2.9375 0 3.210938 0 L 5.3125 0 C 5.5625 0 5.710938 -0.125 5.773438 -0.355469 L 7.976562 -9.867188 L 10.160156 -0.378906 C 10.222656 -0.125 10.371094 0 10.621094 0 L 12.679688 0 C 12.953125 0 13.097656 -0.125 13.121094 -0.398438 L 14.925781 -16.351562 C 14.945312 -16.625 14.800781 -16.792969 14.527344 -16.792969 Z M 12.53125 -16.792969 "/></g></g></g><g fill="#ffffff" fill-opacity="1"><g transform="translate(123.386176, 271.633605)"><g><path d="M 11.167969 0 C 11.417969 0 11.503906 -0.125 11.460938 -0.355469 L 7.976562 -16.5 C 7.933594 -16.710938 7.808594 -16.792969 7.621094 -16.792969 L 4.703125 -16.792969 C 4.511719 -16.792969 4.386719 -16.710938 4.34375 -16.5 L 0.859375 -0.355469 C 0.796875 -0.125 0.902344 0 1.132812 0 L 3.378906 0 C 3.570312 0 3.671875 -0.105469 3.714844 -0.292969 L 4.28125 -3.359375 L 8.019531 -3.359375 L 8.605469 -0.292969 C 8.648438 -0.105469 8.753906 0 8.941406 0 Z M 7.496094 -5.792969 L 4.808594 -5.792969 L 6.152344 -13.121094 Z M 7.496094 -5.792969 "/></g></g></g><g fill="#ffffff" fill-opacity="1"><g transform="translate(141.691292, 271.633605)"><g><path d="M 9.675781 -13.769531 C 9.675781 -15.746094 8.628906 -16.792969 6.65625 -16.792969 L 1.386719 -16.792969 C 1.175781 -16.792969 1.050781 -16.667969 1.050781 -16.457031 L 1.050781 -0.335938 C 1.050781 -0.125 1.175781 0 1.386719 0 L 3.570312 0 C 3.777344 0 3.90625 -0.125 3.90625 -0.335938 L 3.90625 -5.625 L 5.351562 -5.625 L 6.757812 -0.292969 C 6.800781 -0.105469 6.90625 0 7.117188 0 L 9.300781 0 C 9.53125 0 9.65625 -0.125 9.59375 -0.378906 L 8.144531 -5.878906 C 9.152344 -6.320312 9.675781 -7.242188 9.675781 -8.648438 Z M 3.90625 -8.398438 L 3.90625 -14.023438 L 5.984375 -14.023438 C 6.527344 -14.023438 6.824219 -13.730469 6.824219 -13.183594 L 6.824219 -9.238281 C 6.824219 -8.691406 6.527344 -8.398438 5.984375 -8.398438 Z M 3.90625 -8.398438 "/></g></g></g><g fill="#ffffff" fill-opacity="1"><g transform="translate(158.42229, 271.633605)"><g><path d="M 9.425781 -16.457031 C 9.425781 -16.667969 9.339844 -16.792969 9.089844 -16.792969 L 1.363281 -16.792969 C 1.175781 -16.792969 1.050781 -16.667969 1.050781 -16.457031 L 1.050781 -0.335938 C 1.050781 -0.125 1.175781 0 1.363281 0 L 9.089844 0 C 9.339844 0 9.425781 -0.125 9.425781 -0.335938 L 9.425781 -2.433594 C 9.425781 -2.667969 9.339844 -2.769531 9.089844 -2.769531 L 3.839844 -2.769531 L 3.839844 -7.011719 L 7.851562 -7.011719 C 8.0625 -7.011719 8.1875 -7.136719 8.1875 -7.367188 L 8.1875 -9.445312 C 8.1875 -9.675781 8.0625 -9.804688 7.851562 -9.804688 L 3.839844 -9.804688 L 3.839844 -14.003906 L 9.089844 -14.003906 C 9.339844 -14.003906 9.425781 -14.148438 9.425781 -14.359375 Z M 9.425781 -16.457031 "/></g></g></g><g fill="#e70909" fill-opacity="1"><g transform="translate(174.903406, 271.633605)"><g/></g></g><g fill="#e70909" fill-opacity="1"><g transform="translate(186.156455, 271.633605)"><g><path d="M 4.09375 -16.792969 C 2.121094 -16.792969 1.050781 -15.746094 1.050781 -13.769531 L 1.050781 -10.117188 C 1.050781 -9.339844 1.617188 -8.753906 2.371094 -8.628906 L 2.371094 -8.585938 C 1.617188 -8.460938 1.050781 -7.871094 1.050781 -7.09375 L 1.050781 -3.023438 C 1.050781 -1.050781 2.121094 0 4.09375 0 L 9.046875 0 C 9.320312 0 9.46875 -0.148438 9.46875 -0.417969 L 9.46875 -7.222656 L 10.347656 -7.222656 C 10.621094 -7.222656 10.769531 -7.367188 10.769531 -7.640625 L 10.769531 -9.574219 C 10.769531 -9.84375 10.621094 -9.992188 10.347656 -9.992188 L 9.46875 -9.992188 L 9.46875 -10.832031 C 9.46875 -11.105469 9.320312 -11.253906 9.046875 -11.253906 L 7.054688 -11.253906 C 6.78125 -11.253906 6.632812 -11.105469 6.632812 -10.832031 L 6.632812 -9.992188 L 4.679688 -9.992188 C 4.136719 -9.992188 3.839844 -10.285156 3.839844 -10.8125 L 3.839844 -13.183594 C 3.839844 -13.730469 4.113281 -14.023438 4.679688 -14.023438 L 7.894531 -14.023438 C 8.167969 -14.023438 8.3125 -14.171875 8.3125 -14.441406 L 8.3125 -16.375 C 8.3125 -16.648438 8.167969 -16.792969 7.894531 -16.792969 Z M 6.632812 -7.222656 L 6.632812 -2.769531 L 4.679688 -2.769531 C 4.136719 -2.769531 3.839844 -3.042969 3.839844 -3.609375 L 3.839844 -6.382812 C 3.839844 -6.925781 4.113281 -7.222656 4.679688 -7.222656 Z M 6.632812 -7.222656 "/></g></g></g><g fill="#0f0147" fill-opacity="1"><g transform="translate(203.989342, 271.633605)"><g/></g></g><g fill="#14ae5c" fill-opacity="1"><g transform="translate(215.251063, 271.633605)"><g><path d="M 9.824219 -16.792969 C 9.574219 -16.792969 9.425781 -16.667969 9.363281 -16.417969 L 7.03125 -5.960938 L 4.703125 -16.417969 C 4.640625 -16.667969 4.492188 -16.792969 4.242188 -16.792969 L 1.46875 -16.792969 C 1.195312 -16.792969 1.050781 -16.648438 1.050781 -16.375 L 1.050781 -0.417969 C 1.050781 -0.148438 1.195312 0 1.46875 0 L 3.402344 0 C 3.671875 0 3.820312 -0.148438 3.820312 -0.417969 L 3.820312 -9.867188 L 3.96875 -9.867188 L 6.046875 -0.378906 C 6.109375 -0.125 6.253906 0 6.507812 0 L 7.535156 0 C 7.789062 0 7.933594 -0.125 8 -0.378906 L 10.078125 -9.867188 L 10.222656 -9.867188 L 10.222656 -0.417969 C 10.222656 -0.148438 10.371094 0 10.644531 0 L 12.59375 0 C 12.867188 0 13.015625 -0.148438 13.015625 -0.417969 L 13.015625 -16.375 C 13.015625 -16.648438 12.867188 -16.792969 12.59375 -16.792969 Z M 9.824219 -16.792969 "/></g></g></g><g fill="#14ae5c" fill-opacity="1"><g transform="translate(235.319198, 271.633605)"><g><path d="M 11.167969 0 C 11.417969 0 11.503906 -0.125 11.460938 -0.355469 L 7.976562 -16.5 C 7.933594 -16.710938 7.808594 -16.792969 7.621094 -16.792969 L 4.703125 -16.792969 C 4.511719 -16.792969 4.386719 -16.710938 4.34375 -16.5 L 0.859375 -0.355469 C 0.796875 -0.125 0.902344 0 1.132812 0 L 3.378906 0 C 3.570312 0 3.671875 -0.105469 3.714844 -0.292969 L 4.28125 -3.359375 L 8.019531 -3.359375 L 8.605469 -0.292969 C 8.648438 -0.105469 8.753906 0 8.941406 0 Z M 7.496094 -5.792969 L 4.808594 -5.792969 L 6.152344 -13.121094 Z M 7.496094 -5.792969 "/></g></g></g><g fill="#14ae5c" fill-opacity="1"><g transform="translate(253.624314, 271.633605)"><g><path d="M 9.675781 -13.769531 C 9.675781 -15.746094 8.628906 -16.792969 6.65625 -16.792969 L 1.386719 -16.792969 C 1.175781 -16.792969 1.050781 -16.667969 1.050781 -16.457031 L 1.050781 -0.335938 C 1.050781 -0.125 1.175781 0 1.386719 0 L 3.570312 0 C 3.777344 0 3.90625 -0.125 3.90625 -0.335938 L 3.90625 -5.625 L 5.351562 -5.625 L 6.757812 -0.292969 C 6.800781 -0.105469 6.90625 0 7.117188 0 L 9.300781 0 C 9.53125 0 9.65625 -0.125 9.59375 -0.378906 L 8.144531 -5.878906 C 9.152344 -6.320312 9.675781 -7.242188 9.675781 -8.648438 Z M 3.90625 -8.398438 L 3.90625 -14.023438 L 5.984375 -14.023438 C 6.527344 -14.023438 6.824219 -13.730469 6.824219 -13.183594 L 6.824219 -9.238281 C 6.824219 -8.691406 6.527344 -8.398438 5.984375 -8.398438 Z M 3.90625 -8.398438 "/></g></g></g><g fill="#14ae5c" fill-opacity="1"><g transform="translate(270.355306, 271.633605)"><g><path d="M 10.035156 0 C 10.371094 0 10.496094 -0.210938 10.347656 -0.484375 L 6.550781 -8.964844 L 10.117188 -16.289062 C 10.265625 -16.585938 10.140625 -16.792969 9.824219 -16.792969 L 7.621094 -16.792969 C 7.390625 -16.792969 7.242188 -16.6875 7.136719 -16.480469 L 3.90625 -9.867188 L 3.90625 -16.375 C 3.90625 -16.648438 3.757812 -16.792969 3.484375 -16.792969 L 1.46875 -16.792969 C 1.195312 -16.792969 1.050781 -16.648438 1.050781 -16.375 L 1.050781 -0.417969 C 1.050781 -0.148438 1.195312 0 1.46875 0 L 3.484375 0 C 3.757812 0 3.90625 -0.148438 3.90625 -0.417969 L 3.90625 -5.058594 L 4.679688 -6.550781 L 7.328125 -0.316406 C 7.410156 -0.105469 7.558594 0 7.808594 0 Z M 10.035156 0 "/></g></g></g><g fill="#14ae5c" fill-opacity="1"><g transform="translate(287.61101, 271.633605)"><g><path d="M 9.425781 -16.457031 C 9.425781 -16.667969 9.339844 -16.792969 9.089844 -16.792969 L 1.363281 -16.792969 C 1.175781 -16.792969 1.050781 -16.667969 1.050781 -16.457031 L 1.050781 -0.335938 C 1.050781 -0.125 1.175781 0 1.363281 0 L 9.089844 0 C 9.339844 0 9.425781 -0.125 9.425781 -0.335938 L 9.425781 -2.433594 C 9.425781 -2.667969 9.339844 -2.769531 9.089844 -2.769531 L 3.839844 -2.769531 L 3.839844 -7.011719 L 7.851562 -7.011719 C 8.0625 -7.011719 8.1875 -7.136719 8.1875 -7.367188 L 8.1875 -9.445312 C 8.1875 -9.675781 8.0625 -9.804688 7.851562 -9.804688 L 3.839844 -9.804688 L 3.839844 -14.003906 L 9.089844 -14.003906 C 9.339844 -14.003906 9.425781 -14.148438 9.425781 -14.359375 Z M 9.425781 -16.457031 "/></g></g></g><g fill="#14ae5c" fill-opacity="1"><g transform="translate(304.090141, 271.633605)"><g><path d="M 0.964844 -16.792969 C 0.753906 -16.792969 0.628906 -16.667969 0.628906 -16.457031 L 0.628906 -14.359375 C 0.628906 -14.148438 0.753906 -14.023438 0.964844 -14.023438 L 3.402344 -14.023438 L 3.402344 -0.335938 C 3.402344 -0.105469 3.527344 0 3.738281 0 L 5.917969 0 C 6.152344 0 6.253906 -0.105469 6.253906 -0.335938 L 6.253906 -14.023438 L 8.691406 -14.023438 C 8.921875 -14.023438 9.027344 -14.148438 9.027344 -14.359375 L 9.027344 -16.457031 C 9.027344 -16.667969 8.921875 -16.792969 8.691406 -16.792969 Z M 0.964844 -16.792969 "/></g></g></g><g fill="#14ae5c" fill-opacity="1"><g transform="translate(319.750733, 271.633605)"><g><path d="M 1.386719 -16.792969 C 1.15625 -16.792969 1.050781 -16.667969 1.050781 -16.457031 L 1.050781 -0.335938 C 1.050781 -0.125 1.15625 0 1.386719 0 L 3.570312 0 C 3.777344 0 3.90625 -0.125 3.90625 -0.335938 L 3.90625 -16.457031 C 3.90625 -16.667969 3.777344 -16.792969 3.570312 -16.792969 Z M 1.386719 -16.792969 "/></g></g></g><g fill="#14ae5c" fill-opacity="1"><g transform="translate(330.709938, 271.633605)"><g><path d="M 7.496094 -16.792969 C 7.261719 -16.792969 7.160156 -16.667969 7.160156 -16.457031 L 7.160156 -7.597656 L 7.03125 -7.597656 L 3.839844 -16.519531 C 3.777344 -16.710938 3.652344 -16.792969 3.464844 -16.792969 L 1.386719 -16.792969 C 1.175781 -16.792969 1.050781 -16.667969 1.050781 -16.457031 L 1.050781 -0.335938 C 1.050781 -0.125 1.175781 0 1.386719 0 L 3.570312 0 C 3.800781 0 3.90625 -0.125 3.90625 -0.335938 L 3.90625 -9.238281 L 4.007812 -9.238281 L 7.222656 -0.273438 C 7.285156 -0.0820312 7.410156 0 7.597656 0 L 9.675781 0 C 9.886719 0 10.011719 -0.125 10.011719 -0.335938 L 10.011719 -16.457031 C 10.011719 -16.667969 9.886719 -16.792969 9.675781 -16.792969 Z M 7.496094 -16.792969 "/></g></g></g><g fill="#14ae5c" fill-opacity="1"><g transform="translate(347.776752, 271.633605)"><g><path d="M 1.050781 -3.023438 C 1.050781 -1.050781 2.097656 0 4.074219 0 L 6.84375 0 C 8.796875 0 9.867188 -1.050781 9.867188 -3.023438 L 9.867188 -8.859375 C 9.867188 -9.089844 9.742188 -9.195312 9.53125 -9.195312 L 6.003906 -9.195312 C 5.773438 -9.195312 5.667969 -9.089844 5.667969 -8.859375 L 5.667969 -6.757812 C 5.667969 -6.550781 5.773438 -6.421875 6.003906 -6.421875 L 7.09375 -6.421875 L 7.09375 -3.609375 C 7.09375 -3.042969 6.800781 -2.769531 6.253906 -2.769531 L 4.746094 -2.769531 C 4.199219 -2.769531 3.90625 -3.042969 3.90625 -3.609375 L 3.90625 -13.183594 C 3.90625 -13.730469 4.175781 -14.023438 4.746094 -14.023438 L 6.253906 -14.023438 C 6.800781 -14.023438 7.09375 -13.730469 7.09375 -13.183594 L 7.09375 -11.585938 C 7.09375 -11.378906 7.199219 -11.253906 7.429688 -11.253906 L 9.53125 -11.253906 C 9.742188 -11.253906 9.867188 -11.378906 9.867188 -11.585938 L 9.867188 -13.769531 C 9.867188 -15.746094 8.796875 -16.792969 6.84375 -16.792969 L 4.074219 -16.792969 C 2.097656 -16.792969 1.050781 -15.746094 1.050781 -13.769531 Z M 1.050781 -3.023438 "/></g></g></g><g fill="#14ae5c" fill-opacity="1"><g transform="translate(6.202042, 237.193871)"><g><path d="M 22.785156 -38.953125 C 22.203125 -38.953125 21.863281 -38.660156 21.714844 -38.074219 L 16.3125 -13.828125 L 10.90625 -38.074219 C 10.761719 -38.660156 10.417969 -38.953125 9.835938 -38.953125 L 3.410156 -38.953125 C 2.773438 -38.953125 2.433594 -38.609375 2.433594 -37.976562 L 2.433594 -0.972656 C 2.433594 -0.339844 2.773438 0 3.410156 0 L 7.886719 0 C 8.519531 0 8.863281 -0.339844 8.863281 -0.972656 L 8.863281 -22.882812 L 9.203125 -22.882812 L 14.023438 -0.875 C 14.167969 -0.292969 14.507812 0 15.09375 0 L 17.480469 0 C 18.0625 0 18.40625 -0.292969 18.550781 -0.875 L 23.371094 -22.882812 L 23.710938 -22.882812 L 23.710938 -0.972656 C 23.710938 -0.339844 24.054688 0 24.6875 0 L 29.214844 0 C 29.847656 0 30.1875 -0.339844 30.1875 -0.972656 L 30.1875 -37.976562 C 30.1875 -38.609375 29.847656 -38.953125 29.214844 -38.953125 Z M 22.785156 -38.953125 "/></g></g></g><g fill="#14ae5c" fill-opacity="1"><g transform="translate(38.525313, 237.193871)"><g><path d="M 21.960938 -27.070312 C 21.960938 -31.648438 19.476562 -34.082031 14.898438 -34.082031 L 3.214844 -34.082031 C 2.726562 -34.082031 2.433594 -33.839844 2.433594 -33.304688 L 2.433594 -0.777344 C 2.433594 -0.292969 2.726562 0 3.214844 0 L 14.898438 0 C 19.476562 0 21.960938 -2.433594 21.960938 -7.011719 L 21.960938 -13.488281 C 21.960938 -15.289062 20.644531 -16.652344 18.890625 -16.945312 L 18.890625 -17.042969 C 20.644531 -17.332031 21.960938 -18.695312 21.960938 -20.5 Z M 15.777344 -22.105469 C 15.777344 -20.886719 15.09375 -20.207031 13.828125 -20.207031 L 8.472656 -20.207031 L 8.472656 -27.949219 L 13.828125 -27.949219 C 15.144531 -27.949219 15.777344 -27.265625 15.777344 -26 Z M 15.777344 -8.082031 C 15.777344 -6.769531 15.09375 -6.136719 13.828125 -6.136719 L 8.472656 -6.136719 L 8.472656 -13.777344 L 13.828125 -13.777344 C 15.144531 -13.777344 15.777344 -13.097656 15.777344 -11.832031 Z M 15.777344 -8.082031 "/></g></g></g><g fill="#14ae5c" fill-opacity="1"><g transform="translate(62.621702, 237.193871)"><g><path d="M 16.457031 -34.082031 C 15.921875 -34.082031 15.484375 -33.644531 15.484375 -33.109375 L 15.484375 -8.375 C 15.484375 -7.058594 14.800781 -6.425781 13.535156 -6.425781 L 11.003906 -6.425781 C 9.738281 -6.425781 9.054688 -7.058594 9.054688 -8.375 L 9.054688 -33.109375 C 9.054688 -33.644531 8.617188 -34.082031 8.082031 -34.082031 L 3.410156 -34.082031 C 2.871094 -34.082031 2.433594 -33.644531 2.433594 -33.109375 L 2.433594 -7.011719 C 2.433594 -2.433594 4.867188 0 9.445312 0 L 14.898438 0 C 19.476562 0 21.910156 -2.433594 21.910156 -7.011719 L 21.910156 -33.109375 C 21.910156 -33.644531 21.472656 -34.082031 20.9375 -34.082031 Z M 16.457031 -34.082031 "/></g></g></g><g fill="#14ae5c" fill-opacity="1"><g transform="translate(86.669417, 237.193871)"><g><path d="M 9.445312 -34.082031 C 4.917969 -34.082031 2.433594 -31.648438 2.433594 -27.070312 L 2.433594 -18.648438 C 2.433594 -17.722656 2.871094 -17.140625 3.75 -16.847656 L 15.433594 -13.050781 L 15.433594 -8.132812 C 15.433594 -6.816406 14.753906 -6.183594 13.488281 -6.183594 L 10.859375 -6.183594 C 9.640625 -6.183594 8.910156 -6.816406 8.910156 -8.132812 L 8.910156 -10.175781 C 8.910156 -10.710938 8.667969 -10.957031 8.132812 -10.957031 L 3.214844 -10.957031 C 2.726562 -10.957031 2.433594 -10.710938 2.433594 -10.175781 L 2.433594 -7.011719 C 2.433594 -2.433594 4.917969 0 9.445312 0 L 14.898438 0 C 19.476562 0 21.910156 -2.433594 21.910156 -7.011719 L 21.910156 -16.164062 C 21.910156 -17.089844 21.472656 -17.675781 20.644531 -17.964844 L 8.863281 -21.765625 L 8.863281 -25.902344 C 8.863281 -27.167969 9.59375 -27.851562 10.808594 -27.851562 L 13.488281 -27.851562 C 14.800781 -27.851562 15.433594 -27.167969 15.433594 -25.902344 L 15.433594 -23.859375 C 15.433594 -23.371094 15.726562 -23.078125 16.214844 -23.078125 L 21.132812 -23.078125 C 21.667969 -23.078125 21.910156 -23.371094 21.910156 -23.859375 L 21.910156 -27.070312 C 21.910156 -31.648438 19.476562 -34.082031 14.898438 -34.082031 Z M 9.445312 -34.082031 "/></g></g></g><g fill="#14ae5c" fill-opacity="1"><g transform="translate(110.717137, 237.193871)"><g><path d="M 3.214844 0 C 2.679688 0 2.433594 -0.292969 2.433594 -0.777344 L 2.433594 -33.304688 C 2.433594 -33.789062 2.679688 -34.082031 3.214844 -34.082031 L 8.277344 -34.082031 C 8.765625 -34.082031 9.054688 -33.789062 9.054688 -33.304688 L 9.054688 -0.777344 C 9.054688 -0.292969 8.765625 0 8.277344 0 Z M 3.214844 0 "/></g></g></g><g fill="#14ae5c" fill-opacity="1"><g transform="translate(121.913395, 237.193871)"><g><path d="M 9.445312 -34.082031 C 4.917969 -34.082031 2.433594 -31.648438 2.433594 -27.070312 L 2.433594 -18.648438 C 2.433594 -17.722656 2.871094 -17.140625 3.75 -16.847656 L 15.433594 -13.050781 L 15.433594 -8.132812 C 15.433594 -6.816406 14.753906 -6.183594 13.488281 -6.183594 L 10.859375 -6.183594 C 9.640625 -6.183594 8.910156 -6.816406 8.910156 -8.132812 L 8.910156 -10.175781 C 8.910156 -10.710938 8.667969 -10.957031 8.132812 -10.957031 L 3.214844 -10.957031 C 2.726562 -10.957031 2.433594 -10.710938 2.433594 -10.175781 L 2.433594 -7.011719 C 2.433594 -2.433594 4.917969 0 9.445312 0 L 14.898438 0 C 19.476562 0 21.910156 -2.433594 21.910156 -7.011719 L 21.910156 -16.164062 C 21.910156 -17.089844 21.472656 -17.675781 20.644531 -17.964844 L 8.863281 -21.765625 L 8.863281 -25.902344 C 8.863281 -27.167969 9.59375 -27.851562 10.808594 -27.851562 L 13.488281 -27.851562 C 14.800781 -27.851562 15.433594 -27.167969 15.433594 -25.902344 L 15.433594 -23.859375 C 15.433594 -23.371094 15.726562 -23.078125 16.214844 -23.078125 L 21.132812 -23.078125 C 21.667969 -23.078125 21.910156 -23.371094 21.910156 -23.859375 L 21.910156 -27.070312 C 21.910156 -31.648438 19.476562 -34.082031 14.898438 -34.082031 Z M 9.445312 -34.082031 "/></g></g></g><g fill="#14ae5c" fill-opacity="1"><g transform="translate(145.961115, 237.193871)"><g><path d="M 21.863281 -33.304688 C 21.863281 -33.789062 21.667969 -34.082031 21.082031 -34.082031 L 3.164062 -34.082031 C 2.726562 -34.082031 2.433594 -33.789062 2.433594 -33.304688 L 2.433594 -0.777344 C 2.433594 -0.292969 2.726562 0 3.164062 0 L 21.082031 0 C 21.667969 0 21.863281 -0.292969 21.863281 -0.777344 L 21.863281 -5.648438 C 21.863281 -6.183594 21.667969 -6.425781 21.082031 -6.425781 L 9.054688 -6.425781 L 9.054688 -13.632812 L 18.210938 -13.632812 C 18.695312 -13.632812 18.988281 -13.925781 18.988281 -14.460938 L 18.988281 -19.28125 C 18.988281 -19.816406 18.695312 -20.109375 18.210938 -20.109375 L 9.054688 -20.109375 L 9.054688 -27.605469 L 21.082031 -27.605469 C 21.667969 -27.605469 21.863281 -27.949219 21.863281 -28.433594 Z M 21.863281 -33.304688 "/></g></g></g><g fill="#14ae5c" fill-opacity="1"><g transform="translate(169.960152, 237.193871)"><g><path d="M 17.871094 -34.082031 C 17.332031 -34.082031 17.089844 -33.789062 17.089844 -33.304688 L 17.089844 -14.851562 L 7.9375 -33.449219 C 7.742188 -33.886719 7.5 -34.082031 7.058594 -34.082031 L 3.214844 -34.082031 C 2.726562 -34.082031 2.433594 -33.789062 2.433594 -33.304688 L 2.433594 -0.777344 C 2.433594 -0.292969 2.726562 0 3.214844 0 L 7.789062 0 C 8.324219 0 8.570312 -0.292969 8.570312 -0.777344 L 8.570312 -19.234375 L 17.722656 -0.632812 C 17.917969 -0.195312 18.160156 0 18.597656 0 L 22.445312 0 C 22.933594 0 23.226562 -0.292969 23.226562 -0.777344 L 23.226562 -33.304688 C 23.226562 -33.789062 22.933594 -34.082031 22.445312 -34.082031 Z M 17.871094 -34.082031 "/></g></g></g><g fill="#14ae5c" fill-opacity="1"><g transform="translate(195.322226, 237.193871)"><g><path d="M 3.214844 0 C 2.679688 0 2.433594 -0.292969 2.433594 -0.777344 L 2.433594 -33.304688 C 2.433594 -33.789062 2.679688 -34.082031 3.214844 -34.082031 L 8.277344 -34.082031 C 8.765625 -34.082031 9.054688 -33.789062 9.054688 -33.304688 L 9.054688 -0.777344 C 9.054688 -0.292969 8.765625 0 8.277344 0 Z M 3.214844 0 "/></g></g></g><g fill="#e70909" fill-opacity="1"><g transform="translate(206.522345, 237.193871)"><g/></g></g><g fill="#ffffff" fill-opacity="1"><g transform="translate(218.405156, 237.193871)"><g><path d="M 22.785156 -38.953125 C 22.203125 -38.953125 21.863281 -38.660156 21.714844 -38.074219 L 16.3125 -13.828125 L 10.90625 -38.074219 C 10.761719 -38.660156 10.417969 -38.953125 9.835938 -38.953125 L 3.410156 -38.953125 C 2.773438 -38.953125 2.433594 -38.609375 2.433594 -37.976562 L 2.433594 -0.972656 C 2.433594 -0.339844 2.773438 0 3.410156 0 L 7.886719 0 C 8.519531 0 8.863281 -0.339844 8.863281 -0.972656 L 8.863281 -22.882812 L 9.203125 -22.882812 L 14.023438 -0.875 C 14.167969 -0.292969 14.507812 0 15.09375 0 L 17.480469 0 C 18.0625 0 18.40625 -0.292969 18.550781 -0.875 L 23.371094 -22.882812 L 23.710938 -22.882812 L 23.710938 -0.972656 C 23.710938 -0.339844 24.054688 0 24.6875 0 L 29.214844 0 C 29.847656 0 30.1875 -0.339844 30.1875 -0.972656 L 30.1875 -37.976562 C 30.1875 -38.609375 29.847656 -38.953125 29.214844 -38.953125 Z M 22.785156 -38.953125 "/></g></g></g><g fill="#ffffff" fill-opacity="1"><g transform="translate(250.728428, 237.193871)"><g><path d="M 21.960938 -27.070312 C 21.960938 -31.648438 19.476562 -34.082031 14.898438 -34.082031 L 3.214844 -34.082031 C 2.726562 -34.082031 2.433594 -33.839844 2.433594 -33.304688 L 2.433594 -0.777344 C 2.433594 -0.292969 2.726562 0 3.214844 0 L 14.898438 0 C 19.476562 0 21.960938 -2.433594 21.960938 -7.011719 L 21.960938 -13.488281 C 21.960938 -15.289062 20.644531 -16.652344 18.890625 -16.945312 L 18.890625 -17.042969 C 20.644531 -17.332031 21.960938 -18.695312 21.960938 -20.5 Z M 15.777344 -22.105469 C 15.777344 -20.886719 15.09375 -20.207031 13.828125 -20.207031 L 8.472656 -20.207031 L 8.472656 -27.949219 L 13.828125 -27.949219 C 15.144531 -27.949219 15.777344 -27.265625 15.777344 -26 Z M 15.777344 -8.082031 C 15.777344 -6.769531 15.09375 -6.136719 13.828125 -6.136719 L 8.472656 -6.136719 L 8.472656 -13.777344 L 13.828125 -13.777344 C 15.144531 -13.777344 15.777344 -13.097656 15.777344 -11.832031 Z M 15.777344 -8.082031 "/></g></g></g><g fill="#ffffff" fill-opacity="1"><g transform="translate(274.824817, 237.193871)"><g><path d="M 15.289062 -20.15625 L 9.054688 -20.15625 L 9.054688 -33.304688 C 9.054688 -33.789062 8.765625 -34.082031 8.277344 -34.082031 L 3.261719 -34.082031 C 2.679688 -34.082031 2.433594 -33.789062 2.433594 -33.304688 L 2.433594 -0.777344 C 2.433594 -0.292969 2.679688 0 3.261719 0 L 8.277344 0 C 8.765625 0 9.054688 -0.292969 9.054688 -0.777344 L 9.054688 -13.730469 L 15.289062 -13.730469 L 15.289062 -0.777344 C 15.289062 -0.292969 15.582031 0 16.066406 0 L 21.082031 0 C 21.667969 0 21.910156 -0.292969 21.910156 -0.777344 L 21.910156 -33.304688 C 21.910156 -33.789062 21.667969 -34.082031 21.082031 -34.082031 L 16.066406 -34.082031 C 15.582031 -34.082031 15.289062 -33.789062 15.289062 -33.304688 Z M 15.289062 -20.15625 "/></g></g></g><g fill="#ffffff" fill-opacity="1"><g transform="translate(298.872532, 237.193871)"><g><path d="M 21.863281 -33.304688 C 21.863281 -33.789062 21.667969 -34.082031 21.082031 -34.082031 L 3.164062 -34.082031 C 2.726562 -34.082031 2.433594 -33.789062 2.433594 -33.304688 L 2.433594 -0.777344 C 2.433594 -0.292969 2.726562 0 3.164062 0 L 21.082031 0 C 21.667969 0 21.863281 -0.292969 21.863281 -0.777344 L 21.863281 -5.648438 C 21.863281 -6.183594 21.667969 -6.425781 21.082031 -6.425781 L 9.054688 -6.425781 L 9.054688 -13.632812 L 18.210938 -13.632812 C 18.695312 -13.632812 18.988281 -13.925781 18.988281 -14.460938 L 18.988281 -19.28125 C 18.988281 -19.816406 18.695312 -20.109375 18.210938 -20.109375 L 9.054688 -20.109375 L 9.054688 -27.605469 L 21.082031 -27.605469 C 21.667969 -27.605469 21.863281 -27.949219 21.863281 -28.433594 Z M 21.863281 -33.304688 "/></g></g></g><g fill="#ffffff" fill-opacity="1"><g transform="translate(322.871569, 237.193871)"><g><path d="M 9.054688 -6.425781 L 18.695312 -6.425781 C 19.234375 -6.425781 19.476562 -6.136719 19.476562 -5.648438 L 19.476562 -0.777344 C 19.476562 -0.242188 19.234375 0 18.695312 0 L 3.214844 0 C 2.726562 0 2.433594 -0.242188 2.433594 -0.777344 L 2.433594 -33.304688 C 2.433594 -33.789062 2.726562 -34.082031 3.214844 -34.082031 L 8.277344 -34.082031 C 8.8125 -34.082031 9.054688 -33.789062 9.054688 -33.304688 Z M 9.054688 -6.425781 "/></g></g></g><g fill="#ffffff" fill-opacity="1"><g transform="translate(344.485291, 237.193871)"><g><path d="M 21.863281 -33.304688 C 21.863281 -33.789062 21.667969 -34.082031 21.082031 -34.082031 L 3.164062 -34.082031 C 2.726562 -34.082031 2.433594 -33.789062 2.433594 -33.304688 L 2.433594 -0.777344 C 2.433594 -0.292969 2.726562 0 3.164062 0 L 21.082031 0 C 21.667969 0 21.863281 -0.292969 21.863281 -0.777344 L 21.863281 -5.648438 C 21.863281 -6.183594 21.667969 -6.425781 21.082031 -6.425781 L 9.054688 -6.425781 L 9.054688 -13.632812 L 18.210938 -13.632812 C 18.695312 -13.632812 18.988281 -13.925781 18.988281 -14.460938 L 18.988281 -19.28125 C 18.988281 -19.816406 18.695312 -20.109375 18.210938 -20.109375 L 9.054688 -20.109375 L 9.054688 -27.605469 L 21.082031 -27.605469 C 21.667969 -27.605469 21.863281 -27.949219 21.863281 -28.433594 Z M 21.863281 -33.304688 "/></g></g></g><path stroke-linecap="butt" transform="matrix(0.75, 0, 0, 0.75, 129.336032, 243.846006)" fill="none" stroke-linejoin="miter" d="M -0.000126009 2.002201 L 181.692594 2.002201 " stroke="#e70909" stroke-width="4" stroke-opacity="1" stroke-miterlimit="4"/></svg>